<?xml version="1.0" encoding="utf-8"?>
<?xml-stylesheet type="text/xsl" href="rss1.xsl"?>
<rss version="2.0" xmlns:atom="http://www.w3.org/2005/Atom" xmlns:content="http://purl.org/rss/1.0/modules/content/" xmlns:dc="http://purl.org/dc/elements/1.1/" xmlns:media="http://search.yahoo.com/mrss/">
<channel>
 <title>Getty</title>
 <link>http://www.gettyimg.com/</link>
 <atom:link href="http://www.gettyimg.com/" rel="self" type="application/rss+xml" />

 
                <item>
                <title><![CDATA[【HD Live Performances】WEB-DL - Coldplay - Live at River Plate 2023 SТAN 1080p WEB-DL AAC2.0 H.264]]></title>
                <link><![CDATA[https://sharemania.us/threads/coldplay-live-at-river-plate-2023-s%D0%A2an-1080p-web-dl-aac2-0-h-264.234354/]]></link>
                <description><![CDATA[<article>
<blockquote class="messageText SelectQuoteContainer ugc baseHtml">
<img src="https://streamcoimg-a.akamaihd.net/000/432/0344/4320344-PosterArt-554b0e28e01d0a1c99c69b13326ed105.jpg" class="bbCodeImage LbImage" alt="[​IMG]" data-url="https://streamcoimg-a.akamaihd.net/000/432/0344/4320344-PosterArt-554b0e28e01d0a1c99c69b13326ed105.jpg" style=""> <img src="https://i.postimg.cc/VN7rYGCM/Coldplay-Live-at-River-Plate-2023-S-AN-1080p-WEB-DL-AAC2-0-H-264-mkv.jpg" class="bbCodeImage LbImage" alt="[​IMG]" data-url="https://i.postimg.cc/VN7rYGCM/Coldplay-Live-at-River-Plate-2023-S-AN-1080p-WEB-DL-AAC2-0-H-264-mkv.jpg" style=""><br>
<div class="ToggleTriggerAnchor bbCodeSpoilerContainer">
<button type="button" class="button bbCodeSpoilerButton ToggleTrigger Tooltip JsOnly" data-target="> .SpoilerTarget"><span>Spoiler: <span class="SpoilerTitle">Media Info</span></span></button>
<div class="SpoilerTarget bbCodeSpoilerText">General<br>
Unique ID : 67559961201034324385365799909419429468 (0x32D39342655A5B117B63B772A5B4AE5C)<br>
Complete name : Coldplay - Live at River Plate 2023 SТAN 1080p WEB-DL AAC2.0 H.264.mkv<br>
Format : Matroska<br>
Format version : Version 4<br>
File size : 5.81 GiB<br>
Duration : 2 h 8 min<br>
Overall bit rate : 6 451 kb/s<br>
Frame rate : 24.000 FPS<br>
Movie name : Coldplay: Music of the Spheres - Live at River Plate<br>
Encoded date : 2023-12-21 01:21:04 UTC<br>
Writing application : mkvmerge v80.0 ('Roundabout') 64-bit<br>
Writing library : libebml v1.4.4 + libmatroska v1.7.1 / Lavf60.3.100<br>
Cover : Yes<br>
Attachments : cover.png<br>
<br>
Video<br>
ID : 1<br>
Format : AVC<br>
Format/Info : Advanced Video Codec<br>
Format profile : High@L4<br>
Format settings : CABAC / 4 Ref Frames<br>
Format settings, CABAC : Yes<br>
Format settings, Reference frames : 4 frames<br>
Codec ID : V_MPEG4/ISO/AVC<br>
Duration : 2 h 8 min<br>
Bit rate : 6 320 kb/s<br>
Width : 1 920 pixels<br>
Height : 1 080 pixels<br>
Display aspect ratio : 16:9<br>
Frame rate mode : Constant<br>
Frame rate : 24.000 FPS<br>
Color space : YUV<br>
Chroma subsampling : 4:2:0<br>
Bit depth : 8 bits<br>
Scan type : Progressive<br>
Bits/(Pixel*Frame) : 0.127<br>
Stream size : 5.69 GiB (98%)<br>
Default : Yes<br>
Forced : No<br>
Color range : Limited<br>
Color primaries : BT.709<br>
Transfer characteristics : BT.709<br>
Matrix coefficients : BT.709<br>
<br>
Audio<br>
ID : 2<br>
Format : AAC LC<br>
Format/Info : Advanced Audio Codec Low Complexity<br>
Codec ID : 2 / A_AAC-2<br>
Duration : 2 h 8 min<br>
Bit rate : 126 kb/s<br>
Channel(s) : 2 channels<br>
Channel layout : L R<br>
Sampling rate : 44.1 kHz<br>
Frame rate : 43.066 FPS (1024 SPF)<br>
Compression mode : Lossy<br>
Stream size : 116 MiB (2%)<br>
Language : English<br>
Default : Yes<br>
Forced : No<br>
<br>
Text<br>
ID : 3<br>
Format : UTF-8<br>
Codec ID : S_TEXT/UTF8<br>
Codec ID/Info : UTF-8 Plain Text<br>
Duration : 2 h 8 min<br>
Bit rate : 115 b/s<br>
Frame rate : 0.501 FPS<br>
Count of elements : 3876<br>
Stream size : 109 KiB (0%)<br>
Language : English<br>
Default : No<br>
Forced : No</div>
</div>Ripped by me <img src="styles/default/xenforo/smilies/big_smile-48.png" class="mceSmilie" alt=":)" title="Smile    :)"><br>
<div class="bbCodeBlock bbCodeVfcHH HiddenContent">
<div class="attribution type">Hidden Content:</div>
<blockquote>You must either reply or click 'Like' to see the hidden information contained here.</blockquote>
</div>
<div class="messageTextEndMarker">&nbsp;</div>
</blockquote>
</article>]]></description>
                <author><![CDATA[szymek04sawicki]]></author>
                </item>

                
                <item>
                <title><![CDATA[【Albums (lossless)】FLAC - BIGBANG - BIGBANG ALIVE TOUR 2012 IN JAPAN SPECIAL FINAL IN DOME -TOKYO DOME 2012.12.05- (2013) [CD 16bit/44.1kHz]]]></title>
                <link><![CDATA[https://sharemania.us/threads/bigbang-bigbang-alive-tour-2012-in-japan-special-final-in-dome-tokyo-dome-2012-12-05-2013-cd-16bit-44-1khz.234355/]]></link>
                <description><![CDATA[<article>
<blockquote class="messageText SelectQuoteContainer ugc baseHtml">
thanks
<div class="messageTextEndMarker">&nbsp;</div>
</blockquote>
</article>]]></description>
                <author><![CDATA[netflix]]></author>
                </item>

                </channel></rss>